<?xml version="1.0" encoding="utf-8"?>
<!-- Generator: Adobe Illustrator 23.0.5, SVG Export Plug-In . SVG Version: 6.00 Build 0)  -->
<svg version="1.1" xmlns="http://www.w3.org/2000/svg" xmlns:xlink="http://www.w3.org/1999/xlink" x="0px" y="0px"
	 viewBox="0 0 5000 2800" style="enable-background:new 0 0 5000 2800;" xml:space="preserve">
<style type="text/css">
	.st0{fill:#131A3A;}
	.st1{fill:#F44D99;}
	.st2{filter:url(#Adobe_OpacityMaskFilter);}
	.st3{filter:url(#Adobe_OpacityMaskFilter_1_);}
	.st4{mask:url(#SVGID_1_);fill:url(#SVGID_2_);}
	.st5{fill:url(#SVGID_3_);}
	.st6{filter:url(#Adobe_OpacityMaskFilter_2_);}
	.st7{filter:url(#Adobe_OpacityMaskFilter_3_);}
	.st8{mask:url(#SVGID_4_);fill:url(#SVGID_5_);}
	.st9{fill:url(#SVGID_6_);}
	.st10{filter:url(#Adobe_OpacityMaskFilter_4_);}
	.st11{filter:url(#Adobe_OpacityMaskFilter_5_);}
	.st12{mask:url(#SVGID_7_);fill:url(#SVGID_8_);}
	.st13{fill:url(#SVGID_9_);}
	.st14{fill:#FFBC4A;}
	.st15{fill:#FF9151;}
	.st16{fill:#6679BF;}
	.st17{fill:#303B72;}
	.st18{fill:#FFA283;}
	.st19{fill:#FE5E78;}
</style>
<g id="bg">
	<rect class="st0" width="5000" height="2800"/>
</g>
<g id="dipper">
	<path class="st1" d="M2204.75,1716.94"/>
	<defs>
		<filter id="Adobe_OpacityMaskFilter" filterUnits="userSpaceOnUse" x="661.16" y="2179.02" width="350.6" height="282.85">
			<feFlood  style="flood-color:white;flood-opacity:1" result="back"/>
			<feBlend  in="SourceGraphic" in2="back" mode="normal"/>
		</filter>
	</defs>
	<mask maskUnits="userSpaceOnUse" x="661.16" y="2179.02" width="350.6" height="282.85" id="SVGID_1_">
		<g class="st2">
			<defs>
				<filter id="Adobe_OpacityMaskFilter_1_" filterUnits="userSpaceOnUse" x="661.16" y="2179.02" width="350.6" height="282.85">
					<feFlood  style="flood-color:white;flood-opacity:1" result="back"/>
					<feBlend  in="SourceGraphic" in2="back" mode="normal"/>
				</filter>
			</defs>
			<mask maskUnits="userSpaceOnUse" x="661.16" y="2179.02" width="350.6" height="282.85" id="SVGID_1_">
				<g class="st3">
				</g>
			</mask>
			
				<linearGradient id="SVGID_2_" gradientUnits="userSpaceOnUse" x1="620.5082" y1="2332.8176" x2="962.2521" y2="2332.8176" gradientTransform="matrix(0.9464 -0.1024 -0.1024 0.8991 325.8315 304.302)">
				<stop  offset="0" style="stop-color:#FFFFFF"/>
				<stop  offset="0.4993" style="stop-color:#787878"/>
				<stop  offset="0.8444" style="stop-color:#222222"/>
				<stop  offset="1" style="stop-color:#000000"/>
			</linearGradient>
			<path class="st4" d="M1011.73,2179.02c2.15,2.71-136.4,116.94-139.79,119.65L670.5,2459.7c-3.4,2.71-9.86,3.21-8.83-0.32l0,0
				c1.03-3.53-2.35-6.78,1.04-9.49l197.33-157.42"/>
		</g>
	</mask>
	
		<linearGradient id="SVGID_3_" gradientUnits="userSpaceOnUse" x1="620.5082" y1="2332.8176" x2="962.2521" y2="2332.8176" gradientTransform="matrix(0.9464 -0.1024 -0.1024 0.8991 325.8315 304.302)">
		<stop  offset="0" style="stop-color:#FFFFFF"/>
		<stop  offset="0.4097" style="stop-color:#A2DDFF"/>
		<stop  offset="0.8165" style="stop-color:#4CBDFF"/>
		<stop  offset="1" style="stop-color:#2AB0FF"/>
	</linearGradient>
	<path class="st5" d="M1011.73,2179.02c2.15,2.71-136.4,116.94-139.79,119.65L670.5,2459.7c-3.4,2.71-9.86,3.21-8.83-0.32l0,0
		c1.03-3.53-2.35-6.78,1.04-9.49l197.33-157.42"/>
	<defs>
		<filter id="Adobe_OpacityMaskFilter_2_" filterUnits="userSpaceOnUse" x="4054.16" y="210.02" width="350.6" height="282.85">
			<feFlood  style="flood-color:white;flood-opacity:1" result="back"/>
			<feBlend  in="SourceGraphic" in2="back" mode="normal"/>
		</filter>
	</defs>
	<mask maskUnits="userSpaceOnUse" x="4054.16" y="210.02" width="350.6" height="282.85" id="SVGID_4_">
		<g class="st6">
			<defs>
				<filter id="Adobe_OpacityMaskFilter_3_" filterUnits="userSpaceOnUse" x="4054.16" y="210.02" width="350.6" height="282.85">
					<feFlood  style="flood-color:white;flood-opacity:1" result="back"/>
					<feBlend  in="SourceGraphic" in2="back" mode="normal"/>
				</filter>
			</defs>
			<mask maskUnits="userSpaceOnUse" x="4054.16" y="210.02" width="350.6" height="282.85" id="SVGID_4_">
				<g class="st7">
				</g>
			</mask>
			
				<linearGradient id="SVGID_5_" gradientUnits="userSpaceOnUse" x1="4010.4944" y1="528.9411" x2="4352.2383" y2="528.9411" gradientTransform="matrix(0.9464 -0.1024 -0.1024 0.8991 325.8315 304.302)">
				<stop  offset="0" style="stop-color:#FFFFFF"/>
				<stop  offset="0.4993" style="stop-color:#787878"/>
				<stop  offset="0.8444" style="stop-color:#222222"/>
				<stop  offset="1" style="stop-color:#000000"/>
			</linearGradient>
			<path class="st8" d="M4404.73,210.02c2.15,2.71-136.4,116.94-139.79,119.65L4063.5,490.7c-3.4,2.71-9.86,3.21-8.83-0.32l0,0
				c1.03-3.53-2.35-6.78,1.04-9.49l197.33-157.42"/>
		</g>
	</mask>
	
		<linearGradient id="SVGID_6_" gradientUnits="userSpaceOnUse" x1="4010.4944" y1="528.9411" x2="4352.2383" y2="528.9411" gradientTransform="matrix(0.9464 -0.1024 -0.1024 0.8991 325.8315 304.302)">
		<stop  offset="0" style="stop-color:#FFFFFF"/>
		<stop  offset="0.4097" style="stop-color:#A2DDFF"/>
		<stop  offset="0.8165" style="stop-color:#4CBDFF"/>
		<stop  offset="1" style="stop-color:#2AB0FF"/>
	</linearGradient>
	<path class="st9" d="M4404.73,210.02c2.15,2.71-136.4,116.94-139.79,119.65L4063.5,490.7c-3.4,2.71-9.86,3.21-8.83-0.32l0,0
		c1.03-3.53-2.35-6.78,1.04-9.49l197.33-157.42"/>
	<defs>
		<filter id="Adobe_OpacityMaskFilter_4_" filterUnits="userSpaceOnUse" x="480.3" y="307.85" width="260.64" height="210.28">
			<feFlood  style="flood-color:white;flood-opacity:1" result="back"/>
			<feBlend  in="SourceGraphic" in2="back" mode="normal"/>
		</filter>
	</defs>
	<mask maskUnits="userSpaceOnUse" x="480.3" y="307.85" width="260.64" height="210.28" id="SVGID_7_">
		<g class="st10">
			<defs>
				<filter id="Adobe_OpacityMaskFilter_5_" filterUnits="userSpaceOnUse" x="480.3" y="307.85" width="260.64" height="210.28">
					<feFlood  style="flood-color:white;flood-opacity:1" result="back"/>
					<feBlend  in="SourceGraphic" in2="back" mode="normal"/>
				</filter>
			</defs>
			<mask maskUnits="userSpaceOnUse" x="480.3" y="307.85" width="260.64" height="210.28" id="SVGID_7_">
				<g class="st11">
				</g>
			</mask>
			
				<linearGradient id="SVGID_8_" gradientUnits="userSpaceOnUse" x1="190.4793" y1="157.2506" x2="444.5406" y2="157.2506" gradientTransform="matrix(0.9464 -0.1024 -0.1024 0.8991 325.8315 304.302)">
				<stop  offset="0" style="stop-color:#FFFFFF"/>
				<stop  offset="0.4993" style="stop-color:#787878"/>
				<stop  offset="0.8444" style="stop-color:#222222"/>
				<stop  offset="1" style="stop-color:#000000"/>
			</linearGradient>
			<path class="st12" d="M740.93,307.85c1.59,2.01-101.4,86.94-103.93,88.95L487.25,516.5c-2.53,2.01-7.33,2.39-6.56-0.24l0,0
				c0.77-2.62-1.75-5.04,0.78-7.05l146.7-117.03"/>
		</g>
	</mask>
	
		<linearGradient id="SVGID_9_" gradientUnits="userSpaceOnUse" x1="190.4793" y1="157.2506" x2="444.5406" y2="157.2506" gradientTransform="matrix(0.9464 -0.1024 -0.1024 0.8991 325.8315 304.302)">
		<stop  offset="0" style="stop-color:#FFFFFF"/>
		<stop  offset="0.4097" style="stop-color:#A2DDFF"/>
		<stop  offset="0.8165" style="stop-color:#4CBDFF"/>
		<stop  offset="1" style="stop-color:#2AB0FF"/>
	</linearGradient>
	<path class="st13" d="M740.93,307.85c1.59,2.01-101.4,86.94-103.93,88.95L487.25,516.5c-2.53,2.01-7.33,2.39-6.56-0.24l0,0
		c0.77-2.62-1.75-5.04,0.78-7.05l146.7-117.03"/>
	<g>
		<path class="st14" d="M699.76,763.51c0,9.12-7.38,16.51-16.49,16.51s-16.49-7.39-16.49-16.51c0-9.12,7.38-16.51,16.49-16.51
			S699.76,754.39,699.76,763.51z"/>
		<path class="st15" d="M686.52,779.65c-0.8,0-1.45-0.8-1.45-1.8c0-1.01,0.65-1.8,1.45-1.8h4.34c0.76,0,1.37-0.66,1.37-1.67
			c0-0.76-0.35-1.53-0.85-1.53h-15.17c-0.87,0-1.57-1-1.57-2c0-1.01,0.7-2,1.57-2h11.52c0.61,0,1.07-0.96,1.07-1.82
			c0-0.81-0.4-0.98-0.94-1.78h-6.32c-0.73,0-1.32-0.79-1.32-1.8c0-1.01,0.59-1.8,1.32-1.8h8.23c0.62,0,1.12-0.64,1.12-1.65
			c0-0.81-0.32-1.56-0.77-1.56h-8.63c-0.7,0-1.27-0.99-1.27-2s0.57-2,1.27-2H690c0.64,0,1.17-0.64,1.17-1.65
			c0-0.81-0.34-1.56-0.8-1.56h-4.73c-0.64,0-1.17-0.79-1.17-1.8c0-1,0.52-1.8,1.17-1.8h1.19c-1.15-0.4-2.34-0.52-3.57-0.52
			c-9.11,0-16.49,7.33-16.49,16.45c0,9.12,7.38,16.51,16.49,16.51c1.3,0,2.57-0.44,3.79-0.44H686.52z"/>
	</g>
	<g>
		<path class="st14" d="M4315,938.88c0,11.66-9.44,21.11-21.08,21.11c-11.64,0-21.08-9.45-21.08-21.11
			c0-11.66,9.44-21.11,21.08-21.11C4305.56,917.76,4315,927.22,4315,938.88z"/>
		<path class="st15" d="M4298.07,959.51c-1.02,0-1.85-1.02-1.85-2.3c0-1.29,0.83-2.3,1.85-2.3h5.55c0.97,0,1.75-0.85,1.75-2.13
			c0-0.97-0.45-1.96-1.09-1.96h-19.39c-1.11,0-2-1.27-2-2.56c0-1.29,0.9-2.56,2-2.56h14.73c0.78,0,1.36-1.22,1.36-2.33
			c0-1.03-0.51-1.25-1.21-2.27h-8.07c-0.93,0-1.69-1.02-1.69-2.3s0.75-2.3,1.69-2.3h10.52c0.79,0,1.44-0.82,1.44-2.1
			c0-1.03-0.41-1.99-0.99-1.99h-11.03c-0.9,0-1.63-1.27-1.63-2.56s0.73-2.56,1.63-2.56h10.87c0.82,0,1.49-0.82,1.49-2.1
			c0-1.03-0.43-1.99-1.03-1.99h-6.04c-0.82,0-1.49-1.02-1.49-2.3c0-1.28,0.67-2.3,1.49-2.3h1.53c-1.47-0.51-2.99-0.66-4.56-0.66
			c-11.64,0-21.08,9.37-21.08,21.03c0,11.66,9.44,21.11,21.08,21.11c1.67,0,3.29-0.56,4.85-0.56H4298.07z"/>
	</g>
	<g>
		<path class="st14" d="M3824.66,2347.49c-14.72,14.72-38.56,14.73-53.26,0.04c-14.7-14.7-14.68-38.54,0.04-53.26
			c14.72-14.72,38.56-14.73,53.26-0.04C3839.39,2308.93,3839.37,2332.77,3824.66,2347.49z"/>
		<path class="st15" d="M3777.24,2352.17c-1.29-1.29-1.06-3.62,0.57-5.24c1.62-1.62,3.95-1.86,5.24-0.57l7,7
			c1.22,1.22,3.28,1.14,4.9-0.48c1.23-1.23,1.91-3.04,1.1-3.84l-24.47-24.47c-1.4-1.4-0.92-4.13,0.7-5.76
			c1.62-1.62,4.36-2.1,5.76-0.7l18.59,18.59c0.98,0.98,3.27,0.18,4.66-1.22c1.3-1.3,0.94-2.22,1.35-4.39l-10.19-10.19
			c-1.18-1.18-0.85-3.41,0.78-5.03c1.62-1.62,3.86-1.95,5.03-0.78l13.28,13.28c1,1,2.85,0.78,4.47-0.84c1.3-1.3,1.99-3.03,1.26-3.75
			l-13.93-13.93c-1.13-1.13-0.45-3.66,1.18-5.28c1.62-1.62,4.15-2.31,5.28-1.18l13.73,13.73c1.04,1.04,2.92,0.85,4.54-0.77
			c1.3-1.3,1.96-3.06,1.21-3.81l-7.63-7.63c-1.04-1.04-0.6-3.16,1.02-4.79c1.62-1.62,3.75-2.06,4.79-1.02l1.93,1.93
			c-1.21-2.5-2.94-4.61-4.92-6.59c-14.7-14.7-38.44-14.78-53.15-0.07c-14.72,14.72-14.74,38.56-0.04,53.26
			c2.11,2.11,4.86,3.45,6.82,5.41L3777.24,2352.17z"/>
	</g>
	<g>
		<path class="st14" d="M2712.69,1685.31c-3.5,3.5-9.16,3.5-12.66,0.01c-3.49-3.49-3.49-9.16,0.01-12.66
			c3.5-3.5,9.16-3.5,12.66-0.01C2716.19,1676.15,2716.19,1681.81,2712.69,1685.31z"/>
		<path class="st15" d="M2701.42,1686.42c-0.31-0.31-0.25-0.86,0.13-1.25c0.39-0.39,0.94-0.44,1.25-0.13l1.66,1.66
			c0.29,0.29,0.78,0.27,1.17-0.11c0.29-0.29,0.45-0.72,0.26-0.91l-5.82-5.82c-0.33-0.33-0.22-0.98,0.17-1.37
			c0.39-0.39,1.04-0.5,1.37-0.17l4.42,4.42c0.23,0.23,0.78,0.04,1.11-0.29c0.31-0.31,0.22-0.53,0.32-1.04l-2.42-2.42
			c-0.28-0.28-0.2-0.81,0.18-1.2c0.39-0.39,0.92-0.46,1.2-0.18l3.16,3.16c0.24,0.24,0.68,0.19,1.06-0.2
			c0.31-0.31,0.47-0.72,0.3-0.89l-3.31-3.31c-0.27-0.27-0.11-0.87,0.28-1.25c0.39-0.39,0.99-0.55,1.26-0.28l3.26,3.26
			c0.25,0.25,0.69,0.2,1.08-0.18c0.31-0.31,0.47-0.73,0.29-0.9l-1.81-1.81c-0.25-0.25-0.14-0.75,0.24-1.14
			c0.39-0.39,0.89-0.49,1.14-0.24l0.46,0.46c-0.29-0.59-0.7-1.1-1.17-1.57c-3.49-3.49-9.14-3.51-12.63-0.02
			c-3.5,3.5-3.5,9.16-0.01,12.66c0.5,0.5,1.16,0.82,1.62,1.29L2701.42,1686.42z"/>
	</g>
	<g>
		<path class="st14" d="M2700.15,1162.85c-3.8,3.8-9.95,3.8-13.74,0.01c-3.79-3.79-3.79-9.94,0.01-13.74
			c3.8-3.8,9.95-3.8,13.74-0.01C2703.96,1152.9,2703.95,1159.05,2700.15,1162.85z"/>
		<path class="st15" d="M2687.92,1164.05c-0.33-0.33-0.27-0.93,0.15-1.35c0.42-0.42,1.02-0.48,1.35-0.15l1.81,1.81
			c0.31,0.31,0.85,0.29,1.26-0.12c0.32-0.32,0.49-0.78,0.28-0.99l-6.31-6.31c-0.36-0.36-0.24-1.07,0.18-1.49
			c0.42-0.42,1.13-0.54,1.49-0.18l4.8,4.8c0.25,0.25,0.84,0.05,1.2-0.32c0.34-0.34,0.24-0.57,0.35-1.13l-2.63-2.63
			c-0.3-0.3-0.22-0.88,0.2-1.3s1-0.5,1.3-0.2l3.43,3.43c0.26,0.26,0.73,0.2,1.15-0.22c0.34-0.34,0.51-0.78,0.33-0.97l-3.59-3.59
			c-0.29-0.29-0.12-0.94,0.3-1.36c0.42-0.42,1.07-0.6,1.36-0.3l3.54,3.54c0.27,0.27,0.75,0.22,1.17-0.2
			c0.34-0.34,0.51-0.79,0.31-0.98l-1.97-1.97c-0.27-0.27-0.15-0.82,0.26-1.23c0.42-0.42,0.97-0.53,1.24-0.26l0.5,0.5
			c-0.31-0.64-0.76-1.19-1.27-1.7c-3.79-3.79-9.92-3.81-13.71-0.02c-3.8,3.8-3.8,9.95-0.01,13.74c0.54,0.54,1.25,0.89,1.76,1.4
			L2687.92,1164.05z"/>
	</g>
	<g>
		<path class="st16" d="M2483.56,319.21c0-27.8,22.5-50.34,50.27-50.34s50.27,22.54,50.27,50.34c0,27.8-22.5,50.33-50.27,50.33
			S2483.56,347.01,2483.56,319.21z"/>
		<path class="st17" d="M2545.15,297.05c0,6.26-5.07,11.34-11.32,11.34s-11.32-5.07-11.32-11.34c0-6.26,5.07-11.33,11.32-11.33
			S2545.15,290.79,2545.15,297.05z"/>
		<path class="st17" d="M2531.77,285.72c0,4.55-3.69,8.24-8.23,8.24s-8.23-3.69-8.23-8.24c0-4.55,3.69-8.25,8.23-8.25
			S2531.77,281.17,2531.77,285.72z"/>
		<path class="st17" d="M2521.99,345.03c0,3.7-2.99,6.7-6.69,6.7s-6.69-3-6.69-6.7c0-3.7,2.99-6.7,6.69-6.7
			S2521.99,341.33,2521.99,345.03z"/>
		<path class="st17" d="M2572.56,313.45c0,2.84-2.3,5.14-5.14,5.14s-5.14-2.3-5.14-5.14c0-2.84,2.3-5.14,5.14-5.14
			S2572.56,310.61,2572.56,313.45z"/>
		<ellipse class="st17" cx="2551.33" cy="344.97" rx="10.81" ry="10.82"/>
	</g>
	<g>
		<path class="st16" d="M1889.68,1756.71c0-20.82,16.86-37.71,37.66-37.71s37.66,16.88,37.66,37.71c0,20.83-16.86,37.71-37.66,37.71
			S1889.68,1777.53,1889.68,1756.71z"/>
		<path class="st17" d="M1935.82,1740.11c0,4.69-3.8,8.49-8.48,8.49s-8.48-3.8-8.48-8.49c0-4.69,3.8-8.49,8.48-8.49
			S1935.82,1735.42,1935.82,1740.11z"/>
		<path class="st17" d="M1925.8,1731.62c0,3.41-2.76,6.18-6.17,6.18s-6.17-2.76-6.17-6.18s2.76-6.18,6.17-6.18
			S1925.8,1728.21,1925.8,1731.62z"/>
		<path class="st17" d="M1918.47,1776.05c0,2.77-2.24,5.02-5.01,5.02c-2.77,0-5.01-2.25-5.01-5.02c0-2.77,2.24-5.02,5.01-5.02
			C1916.23,1771.04,1918.47,1773.28,1918.47,1776.05z"/>
		<path class="st17" d="M1956.35,1752.4c0,2.13-1.72,3.85-3.85,3.85c-2.13,0-3.85-1.72-3.85-3.85c0-2.13,1.72-3.85,3.85-3.85
			C1954.63,1748.54,1956.35,1750.27,1956.35,1752.4z"/>
		<path class="st17" d="M1948.54,1776.01c0,4.48-3.63,8.11-8.09,8.11s-8.09-3.63-8.09-8.11c0-4.48,3.63-8.11,8.09-8.11
			S1948.54,1771.53,1948.54,1776.01z"/>
	</g>
	<g>
		<path class="st16" d="M4616.68,1354.68c0-30.78,24.92-55.73,55.66-55.73s55.66,24.95,55.66,55.73c0,30.78-24.92,55.73-55.66,55.73
			S4616.68,1385.47,4616.68,1354.68z"/>
		<path class="st17" d="M4684.87,1330.15c0,6.93-5.61,12.55-12.53,12.55s-12.54-5.62-12.54-12.55c0-6.93,5.62-12.55,12.54-12.55
			S4684.87,1323.22,4684.87,1330.15z"/>
		<path class="st17" d="M4670.06,1317.6c0,5.04-4.08,9.13-9.12,9.13c-5.03,0-9.11-4.09-9.11-9.13c0-5.04,4.08-9.13,9.11-9.13
			C4665.98,1308.47,4670.06,1312.56,4670.06,1317.6z"/>
		<path class="st17" d="M4659.24,1383.28c0,4.1-3.31,7.42-7.41,7.42c-4.09,0-7.41-3.32-7.41-7.42c0-4.09,3.31-7.42,7.41-7.42
			C4655.92,1375.86,4659.24,1379.18,4659.24,1383.28z"/>
		<path class="st17" d="M4715.22,1348.31c0,3.15-2.55,5.7-5.69,5.7s-5.69-2.55-5.69-5.7c0-3.14,2.55-5.7,5.69-5.7
			S4715.22,1345.16,4715.22,1348.31z"/>
		<path class="st17" d="M4703.68,1383.21c0,6.62-5.36,11.98-11.96,11.98c-6.61,0-11.96-5.37-11.96-11.98
			c0-6.62,5.36-11.98,11.96-11.98C4698.32,1371.23,4703.68,1376.59,4703.68,1383.21z"/>
	</g>
	<g>
		<path class="st18" d="M284.03,1562.73c-2.64,7.28-10.67,11.04-17.94,8.4c-7.27-2.64-11.03-10.68-8.39-17.96
			c2.64-7.28,10.66-11.04,17.94-8.4C282.91,1547.41,286.67,1555.45,284.03,1562.73z"/>
		<path class="st19" d="M278.34,1561.64l-10.94-3.97c-0.3-0.3-0.44-0.7-0.3-1.09c0.19-0.53,0.78-0.78,1.33-0.58l3.13,1.14
			c0.58,0.21,1.2-0.04,1.39-0.57s-0.12-1.12-0.7-1.33l-3.08-1.12c0.41,0.05,0.83-0.25,0.99-0.7c0.19-0.53-0.03-1.1-0.49-1.27
			l-3.41-1.24c-0.27-0.3-0.4-0.72-0.25-1.14c0.19-0.53,0.73-0.84,1.2-0.67l6.14,2.23c0.51,0.18,1.07-0.09,1.26-0.62
			c0.19-0.53-0.07-1.1-0.57-1.28l-6.23-2.26c-0.29-0.2-0.39-0.66-0.24-1.09c0.19-0.53,0.7-0.8,1.15-0.64l5.94,2.16
			c0.52,0.19,1.1-0.08,1.29-0.61c0.19-0.53-0.08-1.11-0.61-1.3l-4.56-1.65c-0.04-0.02-0.07-0.07-0.11-0.1
			c-5.65,0.08-10.93,3.6-12.97,9.24c-2.64,7.28,1.12,15.32,8.39,17.96c0.62,0.22,1.23,0.43,1.85,0.56c0.18-0.52-0.06-1.04-0.51-1.21
			l-3.41-1.24c-0.27-0.29-0.4-0.72-0.24-1.14c0.19-0.53,0.73-0.84,1.2-0.67l6.13,2.23c0.51,0.18,1.07-0.09,1.26-0.62
			c0.19-0.53-0.07-1.1-0.57-1.28l-6.23-2.26c-0.26-0.29-0.38-0.71-0.22-1.13c0.19-0.53,0.72-0.84,1.16-0.68l5.94,2.16
			c0.53,0.19,1.1-0.08,1.29-0.61c0.19-0.53-0.08-1.1-0.61-1.3l-4.56-1.66c-0.36-0.23-0.51-0.72-0.36-1.14
			c0.16-0.45,0.63-0.71,1.1-0.64l8.31,3.02c0.62,0.23,1.28-0.01,1.48-0.54C279.31,1562.47,278.96,1561.86,278.34,1561.64z"/>
	</g>
</g>
</svg>
